# xmcd CD database file
#
# Track frame offsets:
#	150
#	38930
#	72150
#	111272
#	152887
#	190910
#	228510
#
# Disc length: 3595 seconds
#
# Revision: 0
# Processed by: cddbd v1.4PL0 Copyright (c) Steve Scherf et al.
# Submitted via: CDex 1.50beta10
#
DISCID=5c0e0907
DTITLE=Jeff Silvertrust Quintet - Akanpesänranta
DYEAR=1993
DGENRE=Jazz
TTITLE0=What Ever Happened to Spring
TTITLE1=Two Days Ago From Now
TTITLE2=Jumping Cripple
TTITLE3=Regeneration
TTITLE4=Post Grad Jarrience
TTITLE5=Akanpesänranta
TTITLE6=Hickville
EXTD=YEAR: 1993
EXTT0=
EXTT1=
EXTT2=
EXTT3=
EXTT4=
EXTT5=
EXTT6=
PLAYORDER=
